<?xml version="1.0" encoding="utf-8"?>
<!-- Generator: Adobe Illustrator 18.1.0, SVG Export Plug-In . SVG Version: 6.00 Build 0)  -->
<svg version="1.1" id="Capa_1" xmlns="http://www.w3.org/2000/svg" xmlns:xlink="http://www.w3.org/1999/xlink" x="0px" y="0px"
	 width="753.3px" height="331.7px" viewBox="0 0 753.3 331.7" enable-background="new 0 0 753.3 331.7" xml:space="preserve">
<g>
	<path d="M64.3,154.4H20.5V172h40.2v14.4H20.5v21.3h45.8v14.9H3.6v-82.7h60.7V154.4z"/>
	<path d="M108.7,183.3c-0.3-2.3-1.1-4.3-2.3-6.2c-1.8-2.5-4.6-3.7-8.4-3.7c-5.4,0-9.1,2.7-11.1,8c-1.1,2.8-1.6,6.6-1.6,11.3
		c0,4.5,0.5,8.1,1.6,10.8c1.9,5.1,5.5,7.6,10.8,7.6c3.8,0,6.4-1,8-3c1.6-2,2.5-4.6,2.9-7.9h16.3c-0.4,4.9-2.1,9.5-5.3,13.8
		c-5,7-12.5,10.5-22.3,10.5s-17.1-2.9-21.7-8.8s-7-13.4-7-22.7c0-10.5,2.6-18.7,7.7-24.5c5.1-5.8,12.2-8.8,21.2-8.8
		c7.7,0,14,1.7,18.9,5.2c4.9,3.4,7.8,9.5,8.7,18.2H108.7z"/>
	<path d="M181.6,215.1c-5.2,6.4-13,9.6-23.5,9.6c-10.5,0-18.4-3.2-23.5-9.6s-7.7-14.1-7.7-23c0-8.8,2.6-16.5,7.7-22.9
		s13-9.7,23.5-9.7c10.5,0,18.4,3.2,23.5,9.7s7.7,14.1,7.7,22.9C189.4,201,186.8,208.7,181.6,215.1z M168.8,206.2
		c2.5-3.3,3.8-8.1,3.8-14.2s-1.3-10.8-3.8-14.2s-6.1-5-10.8-5c-4.7,0-8.3,1.7-10.8,5s-3.8,8-3.8,14.2s1.3,10.9,3.8,14.2
		c2.5,3.3,6.1,5,10.8,5C162.7,211.2,166.3,209.5,168.8,206.2z"/>
	<path d="M239.1,161.7c3.1,1.3,5.6,3.3,7.6,6c1.7,2.3,2.7,4.6,3.1,7.1c0.4,2.4,0.6,6.4,0.6,11.8v36H234v-37.3c0-3.3-0.6-6-1.7-8
		c-1.4-2.8-4.2-4.3-8.2-4.3c-4.2,0-7.4,1.4-9.6,4.2c-2.2,2.8-3.3,6.9-3.3,12.1v33.2h-16v-82.5h16v29.2c2.3-3.6,5-6,8-7.4
		c3-1.4,6.2-2.1,9.6-2.1C232.6,159.7,236,160.4,239.1,161.7z"/>
	<path d="M284.2,185.3c3-0.4,5.1-0.8,6.4-1.4c2.3-1,3.4-2.5,3.4-4.5c0-2.5-0.9-4.2-2.6-5.2c-1.8-1-4.4-1.4-7.8-1.4
		c-3.8,0-6.5,0.9-8.1,2.8c-1.1,1.4-1.9,3.3-2.3,5.6h-15.4c0.3-5.4,1.8-9.7,4.5-13.2c4.2-5.4,11.5-8.1,21.9-8.1
		c6.7,0,12.7,1.3,17.9,4c5.2,2.7,7.8,7.7,7.8,15V207c0,1.9,0,4.3,0.1,7.1c0.1,2.1,0.4,3.5,1,4.3c0.5,0.7,1.3,1.4,2.4,1.9v2.4h-17.4
		c-0.5-1.2-0.8-2.4-1-3.5c-0.2-1.1-0.3-2.3-0.4-3.7c-2.2,2.4-4.8,4.4-7.7,6.1c-3.5,2-7.4,3-11.7,3c-5.6,0-10.2-1.6-13.8-4.7
		s-5.4-7.6-5.4-13.4c0-7.5,2.9-13,8.8-16.3c3.2-1.8,7.9-3.1,14.1-3.9L284.2,185.3z M294,192.8c-1,0.6-2.1,1.2-3.1,1.5
		c-1,0.4-2.5,0.8-4.3,1.1l-3.6,0.7c-3.4,0.6-5.9,1.3-7.4,2.2c-2.5,1.5-3.8,3.7-3.8,6.8c0,2.7,0.8,4.7,2.3,5.9s3.4,1.8,5.6,1.8
		c3.5,0,6.7-1,9.7-3c2.9-2,4.5-5.7,4.6-11.1V192.8z"/>
	<path d="M355.2,183.3c-0.3-2.3-1.1-4.3-2.3-6.2c-1.8-2.5-4.6-3.7-8.4-3.7c-5.4,0-9.1,2.7-11.1,8c-1.1,2.8-1.6,6.6-1.6,11.3
		c0,4.5,0.5,8.1,1.6,10.8c1.9,5.1,5.5,7.6,10.8,7.6c3.8,0,6.4-1,8-3c1.6-2,2.5-4.6,2.9-7.9h16.3c-0.4,4.9-2.1,9.5-5.3,13.8
		c-5,7-12.5,10.5-22.3,10.5s-17.1-2.9-21.7-8.8s-7-13.4-7-22.7c0-10.5,2.6-18.7,7.7-24.5c5.1-5.8,12.2-8.8,21.2-8.8
		c7.7,0,14,1.7,18.9,5.2c4.9,3.4,7.8,9.5,8.7,18.2H355.2z"/>
	<path d="M377,140.1h15.7v44.6l20.2-23.1h19.9l-21.9,22.8l22.8,38.1h-19.5l-14.8-26.1l-6.6,6.9v19.3H377V140.1z"/>
	<path d="M478.7,139.8l10.9,47.4l2.4,13.2l2.4-12.9l9.3-47.7H522l9.8,47.4l2.5,13.2l2.6-12.7l11-47.9h17.6l-23.3,82.7h-16.6
		l-10-48.4l-2.9-16l-2.9,16l-10,48.4h-16.1l-23.5-82.7H478.7z"/>
	<path d="M615.7,215.1c-5.2,6.4-13,9.6-23.5,9.6c-10.5,0-18.4-3.2-23.5-9.6c-5.2-6.4-7.7-14.1-7.7-23c0-8.8,2.6-16.5,7.7-22.9
		c5.2-6.5,13-9.7,23.5-9.7c10.5,0,18.4,3.2,23.5,9.7c5.2,6.5,7.7,14.1,7.7,22.9C623.4,201,620.8,208.7,615.7,215.1z M602.9,206.2
		c2.5-3.3,3.8-8.1,3.8-14.2s-1.3-10.8-3.8-14.2s-6.1-5-10.8-5s-8.3,1.7-10.8,5c-2.5,3.3-3.8,8-3.8,14.2s1.3,10.9,3.8,14.2
		c2.5,3.3,6.1,5,10.8,5S600.4,209.5,602.9,206.2z"/>
	<path d="M663.3,159.9c0.2,0,0.7,0,1.4,0.1v16.4c-1-0.1-1.9-0.2-2.7-0.2s-1.4-0.1-1.9-0.1c-6.4,0-10.8,2.1-13,6.3
		c-1.2,2.4-1.9,6-1.9,10.9v29.2h-16.1v-61.2h15.3V172c2.5-4.1,4.6-6.9,6.5-8.4c3-2.5,6.9-3.8,11.7-3.8
		C662.8,159.9,663.1,159.9,663.3,159.9z"/>
	<path d="M683.9,222.5h-16v-82.7h16V222.5z"/>
	<path d="M726.5,162.3c2.9,1.6,5.2,3.9,7,6.8v-29.2h16.2v82.6h-15.5v-8.5c-2.3,3.6-4.9,6.3-7.8,7.9c-2.9,1.6-6.5,2.5-10.9,2.5
		c-7.1,0-13.2-2.9-18-8.7c-4.9-5.8-7.3-13.2-7.3-22.3c0-10.4,2.4-18.7,7.2-24.6c4.8-6,11.2-9,19.3-9
		C720.3,159.9,723.6,160.7,726.5,162.3z M730.4,205.9c2.4-3.4,3.5-7.7,3.5-13.1c0-7.5-1.9-12.8-5.7-16.1c-2.3-1.9-5-2.9-8.1-2.9
		c-4.7,0-8.1,1.8-10.3,5.3c-2.2,3.5-3.3,7.9-3.3,13.2c0,5.7,1.1,10.2,3.3,13.6c2.2,3.4,5.6,5.1,10.1,5.1
		C724.6,211,728,209.3,730.4,205.9z"/>
</g>
<g>
	<path fill="#F5F5F5" d="M0,238.5h12.7l22.9,40.3v-40.3h11.2v57.8H34.8l-23.5-41v41H0V238.5z"/>
	<path fill="#F5F5F5" d="M89.6,291c-3.6,4.5-9.1,6.7-16.4,6.7s-12.8-2.2-16.4-6.7c-3.6-4.5-5.4-9.8-5.4-16.1c0-6.2,1.8-11.5,5.4-16
		c3.6-4.5,9.1-6.8,16.4-6.8s12.8,2.3,16.4,6.8c3.6,4.5,5.4,9.9,5.4,16C95,281.2,93.2,286.6,89.6,291z M80.7,284.8
		c1.8-2.3,2.6-5.6,2.6-9.9c0-4.3-0.9-7.6-2.6-9.9s-4.3-3.5-7.5-3.5s-5.8,1.2-7.5,3.5s-2.6,5.6-2.6,9.9c0,4.3,0.9,7.6,2.6,9.9
		c1.8,2.3,4.3,3.5,7.5,3.5S78.9,287.2,80.7,284.8z"/>
	<path fill="#F5F5F5" d="M123.5,253.5h12l-15.4,42.7h-11.8L93,253.5h12.5l8.9,31.5L123.5,253.5z"/>
	<path fill="#F5F5F5" d="M164.4,254.4c3,1.3,5.4,3.4,7.4,6.3c1.8,2.5,2.9,5.5,3.4,8.8c0.3,2,0.4,4.8,0.4,8.5h-31.1
		c0.2,4.3,1.7,7.3,4.5,9c1.7,1.1,3.8,1.6,6.2,1.6c2.5,0,4.6-0.7,6.2-2c0.9-0.7,1.6-1.7,2.3-2.9H175c-0.3,2.5-1.7,5.1-4.1,7.7
		c-3.8,4.2-9.2,6.2-16.1,6.2c-5.7,0-10.7-1.8-15-5.3s-6.5-9.2-6.5-17.1c0-7.4,2-13.1,5.9-17c3.9-3.9,9-5.9,15.3-5.9
		C158.1,252.4,161.4,253,164.4,254.4z M147.7,264c-1.6,1.6-2.6,3.8-3,6.6H164c-0.2-3-1.2-5.2-3-6.8c-1.8-1.5-4-2.3-6.6-2.3
		C151.5,261.6,149.3,262.4,147.7,264z"/>
	<path fill="#F5F5F5" d="M232,253.7c1.8,0.7,3.5,2,5,3.8c1.2,1.5,2,3.3,2.4,5.5c0.3,1.4,0.4,3.5,0.4,6.3l-0.1,26.9h-11.4V269
		c0-1.6-0.3-3-0.8-4c-1-2-2.8-3-5.5-3c-3.1,0-5.2,1.3-6.4,3.8c-0.6,1.4-0.9,3-0.9,4.9v25.4h-11.2v-25.4c0-2.5-0.3-4.4-0.8-5.5
		c-0.9-2.1-2.8-3.1-5.5-3.1c-3.2,0-5.3,1-6.4,3.1c-0.6,1.2-0.9,2.9-0.9,5.3v25.7h-11.3v-42.6h10.9v6.2c1.4-2.2,2.7-3.8,3.9-4.7
		c2.2-1.7,5-2.5,8.4-2.5c3.3,0,5.9,0.7,7.9,2.2c1.6,1.3,2.8,3,3.7,5.1c1.5-2.5,3.3-4.3,5.4-5.5c2.3-1.2,4.9-1.8,7.7-1.8
		C228.3,252.6,230.1,252.9,232,253.7z"/>
	<path fill="#F5F5F5" d="M282.5,258.7c3.2,4.1,4.8,9.3,4.8,15.7c0,6.6-1.6,12.1-4.7,16.5s-7.5,6.5-13.2,6.5c-3.5,0-6.4-0.7-8.5-2.1
		c-1.3-0.8-2.7-2.3-4.2-4.4v5.4h-11v-57.7h11.2v20.5c1.4-2,3-3.5,4.7-4.5c2-1.3,4.6-2,7.7-2C274.9,252.6,279.3,254.6,282.5,258.7z
		 M273.2,284.7c1.6-2.3,2.4-5.4,2.4-9.2c0-3-0.4-5.5-1.2-7.5c-1.5-3.8-4.3-5.6-8.3-5.6c-4.1,0-6.9,1.8-8.4,5.5
		c-0.8,2-1.2,4.5-1.2,7.6c0,3.7,0.8,6.7,2.5,9.1c1.6,2.4,4.1,3.6,7.5,3.6C269.3,288.2,271.5,287,273.2,284.7z"/>
	<path fill="#F5F5F5" d="M319.9,254.4c3,1.3,5.4,3.4,7.4,6.3c1.8,2.5,2.9,5.5,3.4,8.8c0.3,2,0.4,4.8,0.4,8.5h-31.1
		c0.2,4.3,1.7,7.3,4.5,9c1.7,1.1,3.8,1.6,6.2,1.6c2.5,0,4.6-0.7,6.2-2c0.9-0.7,1.6-1.7,2.3-2.9h11.4c-0.3,2.5-1.7,5.1-4.1,7.7
		c-3.8,4.2-9.2,6.2-16.1,6.2c-5.7,0-10.7-1.8-15-5.3s-6.5-9.2-6.5-17.1c0-7.4,2-13.1,5.9-17c3.9-3.9,9-5.9,15.3-5.9
		C313.6,252.4,316.9,253,319.9,254.4z M303.2,264c-1.6,1.6-2.6,3.8-3,6.6h19.2c-0.2-3-1.2-5.2-3-6.8c-1.8-1.5-4-2.3-6.6-2.3
		C307,261.6,304.8,262.4,303.2,264z"/>
	<path fill="#F5F5F5" d="M357.8,252.5c0.1,0,0.5,0,1,0.1V264c-0.7-0.1-1.3-0.1-1.9-0.2s-1,0-1.3,0c-4.5,0-7.5,1.5-9.1,4.4
		c-0.9,1.6-1.3,4.2-1.3,7.6v20.4H334v-42.7h10.7v7.4c1.7-2.8,3.2-4.8,4.5-5.8c2.1-1.8,4.8-2.6,8.2-2.6
		C357.5,252.5,357.7,252.5,357.8,252.5z"/>
	<path fill="#F5F5F5" d="M383.2,257v-7.6c3.5-0.2,6-0.4,7.4-0.7c2.2-0.5,4.1-1.5,5.5-3c1-1,1.7-2.4,2.2-4.1c0.3-1,0.4-1.8,0.4-2.3
		h9.3v56.8h-11.4V257H383.2z"/>
	<path fill="#F5F5F5" d="M427.6,281c0.4,2.4,1.3,4.3,2.5,5.6c1.2,1.3,3.1,2,5.5,2c2.8,0,4.9-1,6.3-2.9c1.4-1.9,2.2-4.4,2.2-7.3
		c0-2.9-0.7-5.3-2-7.3c-1.4-2-3.5-3-6.3-3c-1.4,0-2.5,0.2-3.5,0.5c-1.7,0.6-3.1,1.8-3.9,3.5l-10-0.5l4-31.4h31.3v9.5h-23.2l-2,12.4
		c1.7-1.1,3.1-1.9,4-2.2c1.6-0.6,3.6-0.9,5.9-0.9c4.7,0,8.8,1.6,12.3,4.7c3.5,3.2,5.2,7.8,5.2,13.8c0,5.3-1.7,9.9-5.1,14.1
		c-3.4,4.1-8.4,6.2-15.1,6.2c-5.4,0-9.8-1.4-13.3-4.3c-3.5-2.9-5.4-7-5.8-12.3H427.6z"/>
	<path fill="#F5F5F5" d="M460.2,268.6h21.9v10.6h-21.9V268.6z"/>
	<path fill="#F5F5F5" d="M481.5,257v-7.6c3.5-0.2,6-0.4,7.4-0.7c2.2-0.5,4.1-1.5,5.5-3c1-1,1.7-2.4,2.2-4.1c0.3-1,0.4-1.8,0.4-2.3
		h9.3v56.8h-11.4V257H481.5z"/>
	<path fill="#F5F5F5" d="M542.7,253.7c0-0.9-0.4-1.9-1.1-3c-1.2-1.8-3-2.7-5.4-2.7c-3.6,0-6.2,2-7.8,6.1c-0.8,2.2-1.4,5.6-1.7,10
		c1.4-1.6,3-2.8,4.8-3.6c1.8-0.8,3.9-1.1,6.3-1.1c5,0,9.2,1.7,12.4,5.1c3.2,3.4,4.8,7.8,4.8,13.1c0,5.3-1.6,10-4.7,14
		c-3.2,4.1-8.1,6.1-14.7,6.1c-7.2,0-12.4-3-15.8-9c-2.6-4.7-4-10.7-4-18.1c0-4.3,0.2-7.9,0.5-10.6c0.7-4.8,1.9-8.9,3.8-12.1
		c1.6-2.7,3.7-5,6.4-6.6c2.6-1.7,5.8-2.5,9.4-2.5c5.3,0,9.5,1.4,12.6,4.1s4.9,6.3,5.3,10.8H542.7z M529.4,285.7
		c1.6,1.9,3.7,2.9,6.3,2.9c2.5,0,4.4-0.9,5.9-2.8s2.1-4.3,2.1-7.3c0-3.3-0.8-5.9-2.4-7.6c-1.6-1.8-3.6-2.6-6-2.6
		c-1.9,0-3.6,0.6-5.1,1.7c-2.2,1.7-3.3,4.4-3.3,8.2C526.9,281.3,527.8,283.8,529.4,285.7z"/>
	<path fill="#F5F5F5" d="M559.1,305.5c2.2-0.6,3.9-1.7,5-3.1s1.7-3.5,1.8-6.2h-6.8v-11.7h12.1v10.1c0,1.8-0.2,3.6-0.7,5.6
		c-0.5,1.9-1.3,3.6-2.6,5c-1.4,1.5-3,2.7-4.9,3.4c-1.9,0.8-3.2,1.2-3.9,1.2V305.5z"/>
	<path fill="#F5F5F5" d="M599.4,285.1c1.6-3.8,5.4-7.8,11.3-12c5.1-3.7,8.5-6.3,10-7.9c2.3-2.5,3.5-5.2,3.5-8.2c0-2.4-0.7-4.4-2-6
		s-3.2-2.4-5.7-2.4c-3.4,0-5.7,1.3-6.9,3.8c-0.7,1.5-1.1,3.8-1.3,7h-10.9c0.2-4.8,1.1-8.7,2.6-11.7c3-5.7,8.3-8.5,15.9-8.5
		c6,0,10.8,1.7,14.4,5s5.3,7.7,5.3,13.2c0,4.2-1.3,7.9-3.8,11.2c-1.7,2.2-4.4,4.6-8.1,7.2l-4.5,3.2c-2.8,2-4.7,3.4-5.7,4.3
		c-1,0.9-1.9,1.9-2.6,3.1h24.8v9.8h-38.9C596.9,292.2,597.8,288.4,599.4,285.1z"/>
	<path fill="#F5F5F5" d="M673.5,246.7c2.9,5.1,4.4,12.3,4.4,21.7c0,9.4-1.5,16.6-4.4,21.7c-2.9,5.1-8,7.6-15.2,7.6
		c-7.2,0-12.3-2.5-15.2-7.6c-2.9-5.1-4.4-12.3-4.4-21.7c0-9.4,1.5-16.6,4.4-21.7c2.9-5.1,8-7.6,15.2-7.6
		C665.5,239,670.6,241.6,673.5,246.7z M651.7,283.4c1.1,3.5,3.3,5.2,6.6,5.2c3.3,0,5.5-1.7,6.5-5.2c1-3.5,1.5-8.5,1.5-15
		c0-6.8-0.5-11.9-1.5-15.2c-1-3.3-3.2-4.9-6.5-4.9c-3.3,0-5.5,1.6-6.6,4.9c-1.1,3.3-1.6,8.4-1.6,15.2
		C650.1,274.9,650.6,279.9,651.7,283.4z"/>
	<path fill="#F5F5F5" d="M681.3,257v-7.6c3.5-0.2,6-0.4,7.4-0.7c2.2-0.5,4.1-1.5,5.5-3c1-1,1.7-2.4,2.2-4.1c0.3-1,0.4-1.8,0.4-2.3
		h9.3v56.8h-11.4V257H681.3z"/>
	<path fill="#F5F5F5" d="M753.3,284h-6.4v12.2h-10.9V284h-22.5v-9.8l20.9-34.5h12.5v35.5h6.4V284z M735.9,275.3v-24.5l-14.2,24.5
		H735.9z"/>
</g>
<g>
	<path fill="#F5F5F5" d="M227.6,325.9c0.1,0.8,0.3,1.4,0.7,1.8c0.6,0.7,1.6,1.1,3.1,1.1c0.9,0,1.6-0.1,2.1-0.3c1-0.4,1.5-1,1.5-2
		c0-0.6-0.3-1-0.8-1.3c-0.5-0.3-1.3-0.6-2.4-0.8l-1.9-0.4c-1.8-0.4-3.1-0.8-3.8-1.3c-1.2-0.8-1.7-2-1.7-3.7c0-1.5,0.6-2.8,1.7-3.9
		s2.8-1.5,5-1.5c1.8,0,3.4,0.5,4.7,1.4c1.3,1,2,2.4,2,4.2h-3.5c-0.1-1-0.5-1.8-1.4-2.2c-0.6-0.3-1.3-0.4-2.2-0.4
		c-1,0-1.7,0.2-2.3,0.6c-0.6,0.4-0.9,0.9-0.9,1.6c0,0.6,0.3,1.1,0.8,1.4c0.4,0.2,1.1,0.4,2.3,0.7l3,0.7c1.3,0.3,2.3,0.7,3,1.3
		c1,0.8,1.5,2,1.5,3.5c0,1.6-0.6,2.9-1.8,3.9s-2.9,1.6-5.2,1.6c-2.3,0-4.1-0.5-5.4-1.5s-2-2.4-2-4.2H227.6z"/>
	<path fill="#F5F5F5" d="M249.4,313.9h4.1l-5.8,10.8v6.5h-3.6v-6.5l-6-10.8h4.3l3.6,7.5L249.4,313.9z"/>
	<path fill="#F5F5F5" d="M264.9,314.3c1.2,0.4,2.2,1.1,2.9,2.2c0.6,0.9,1,1.8,1.2,2.8c0.2,1,0.3,2,0.3,2.9c0,2.3-0.5,4.2-1.4,5.8
		c-1.3,2.1-3.2,3.2-5.8,3.2h-7.4v-17.3h7.4C263.3,314,264.2,314.1,264.9,314.3z M258.3,316.9v11.3h3.3c1.7,0,2.9-0.8,3.6-2.5
		c0.4-0.9,0.6-2,0.6-3.3c0-1.8-0.3-3.1-0.8-4c-0.6-0.9-1.6-1.4-3.3-1.4H258.3z"/>
	<path fill="#F5F5F5" d="M280.9,313.4h2.8l-6.7,17.8h-2.8L280.9,313.4z"/>
	<path fill="#F5F5F5" d="M290.9,315.8c1.4-1.4,3.2-2.1,5.3-2.1c2.9,0,5,1,6.3,2.9c0.7,1.1,1.1,2.1,1.2,3.2H300
		c-0.2-0.8-0.5-1.5-0.9-1.9c-0.6-0.8-1.6-1.1-2.9-1.1c-1.3,0-2.3,0.5-3,1.6s-1.1,2.6-1.1,4.5s0.4,3.4,1.2,4.4s1.8,1.4,3,1.4
		c1.2,0,2.2-0.4,2.8-1.2c0.4-0.4,0.7-1.1,0.9-2h3.6c-0.3,1.9-1.1,3.4-2.4,4.6s-2.9,1.8-4.9,1.8c-2.5,0-4.4-0.8-5.8-2.4
		c-1.4-1.6-2.1-3.8-2.1-6.6C288.5,319.7,289.3,317.4,290.9,315.8z"/>
	<path fill="#F5F5F5" d="M318.5,315.8c0.5,0.7,0.8,1.6,0.8,2.6c0,1.1-0.3,1.9-0.8,2.5c-0.3,0.4-0.7,0.7-1.3,1c0.9,0.3,1.5,0.8,2,1.5
		s0.7,1.5,0.7,2.5c0,1-0.3,1.9-0.8,2.8c-0.3,0.5-0.7,1-1.2,1.4c-0.6,0.4-1.2,0.7-2,0.9c-0.7,0.2-1.6,0.2-2.4,0.2h-7.8v-17.3h8.3
		C316.1,314,317.6,314.6,318.5,315.8z M309.1,316.9v3.8h4.2c0.8,0,1.4-0.1,1.8-0.4c0.5-0.3,0.7-0.8,0.7-1.5c0-0.8-0.3-1.3-0.9-1.6
		c-0.5-0.2-1.2-0.3-2-0.3H309.1z M309.1,323.6v4.6h4.2c0.7,0,1.3-0.1,1.8-0.3c0.8-0.4,1.1-1.1,1.1-2.2c0-0.9-0.4-1.5-1.1-1.9
		c-0.4-0.2-1-0.3-1.7-0.3H309.1z"/>
	<path fill="#F5F5F5" d="M333.6,319.3c-0.3-1.2-0.9-2-2-2.5c-0.6-0.3-1.3-0.4-2-0.4c-1.4,0-2.5,0.5-3.4,1.6s-1.3,2.6-1.3,4.7
		c0,2.1,0.5,3.6,1.5,4.5s2.1,1.3,3.3,1.3c1.2,0,2.2-0.3,3-1s1.2-1.6,1.4-2.7h-4V322h7.2v9.3h-2.4l-0.4-2.2c-0.7,0.8-1.3,1.4-1.9,1.7
		c-1,0.6-2.1,0.9-3.5,0.9c-2.3,0-4.2-0.8-5.6-2.4c-1.5-1.6-2.3-3.8-2.3-6.5c0-2.8,0.8-5,2.3-6.7c1.5-1.7,3.6-2.5,6.1-2.5
		c2.2,0,4,0.6,5.3,1.7s2.1,2.5,2.3,4.2H333.6z"/>
	<path fill="#F5F5F5" d="M349.4,313.4h2.8l-6.7,17.8h-2.8L349.4,313.4z"/>
	<path fill="#F5F5F5" d="M367.9,314.3c1.2,0.4,2.2,1.1,2.9,2.2c0.6,0.9,1,1.8,1.2,2.8c0.2,1,0.3,2,0.3,2.9c0,2.3-0.5,4.2-1.4,5.8
		c-1.3,2.1-3.2,3.2-5.8,3.2h-7.4v-17.3h7.4C366.3,314,367.1,314.1,367.9,314.3z M361.2,316.9v11.3h3.3c1.7,0,2.9-0.8,3.6-2.5
		c0.4-0.9,0.6-2,0.6-3.3c0-1.8-0.3-3.1-0.8-4c-0.6-0.9-1.6-1.4-3.3-1.4H361.2z"/>
	<path fill="#F5F5F5" d="M376,315.8c1.4-1.4,3.2-2.1,5.3-2.1c2.9,0,5,1,6.3,2.9c0.7,1.1,1.1,2.1,1.2,3.2h-3.6
		c-0.2-0.8-0.5-1.5-0.9-1.9c-0.6-0.8-1.6-1.1-2.9-1.1c-1.3,0-2.3,0.5-3,1.6s-1.1,2.6-1.1,4.5s0.4,3.4,1.2,4.4s1.8,1.4,3,1.4
		c1.2,0,2.2-0.4,2.8-1.2c0.4-0.4,0.7-1.1,0.9-2h3.6c-0.3,1.9-1.1,3.4-2.4,4.6s-2.9,1.8-4.9,1.8c-2.5,0-4.4-0.8-5.8-2.4
		c-1.4-1.6-2.1-3.8-2.1-6.6C373.6,319.7,374.4,317.4,376,315.8z"/>
	<path fill="#F5F5F5" d="M400.4,313.4h2.8l-6.7,17.8h-2.8L400.4,313.4z"/>
	<path fill="#F5F5F5" d="M408.7,313.9h3.8l6.9,12v-12h3.4v17.3h-3.6l-7-12.3v12.3h-3.4V313.9z"/>
	<path fill="#F5F5F5" d="M435.2,313.9h4.1l-5.8,10.8v6.5h-3.6v-6.5l-6-10.8h4.3l3.6,7.5L435.2,313.9z"/>
	<path fill="#F5F5F5" d="M441.2,315.8c1.4-1.4,3.2-2.1,5.3-2.1c2.9,0,5,1,6.3,2.9c0.7,1.1,1.1,2.1,1.2,3.2h-3.6
		c-0.2-0.8-0.5-1.5-0.9-1.9c-0.6-0.8-1.6-1.1-2.9-1.1c-1.3,0-2.3,0.5-3,1.6s-1.1,2.6-1.1,4.5s0.4,3.4,1.2,4.4s1.8,1.4,3,1.4
		c1.2,0,2.2-0.4,2.8-1.2c0.4-0.4,0.7-1.1,0.9-2h3.6c-0.3,1.9-1.1,3.4-2.4,4.6s-2.9,1.8-4.9,1.8c-2.5,0-4.4-0.8-5.8-2.4
		c-1.4-1.6-2.1-3.8-2.1-6.6C438.8,319.7,439.6,317.4,441.2,315.8z"/>
	<path fill="#F5F5F5" d="M465.7,313.4h2.8l-6.7,17.8H459L465.7,313.4z"/>
	<path fill="#F5F5F5" d="M485.5,313.9h5.2v17.3h-3.4v-11.7c0-0.3,0-0.8,0-1.4s0-1.1,0-1.4l-3.3,14.5h-3.5l-3.2-14.5
		c0,0.3,0,0.8,0,1.4s0,1.1,0,1.4v11.7H474v-17.3h5.3l3.1,13.6L485.5,313.9z"/>
	<path fill="#F5F5F5" d="M498.1,313.9h4.1l6.1,17.3h-3.9l-1.1-3.6h-6.4l-1.2,3.6H492L498.1,313.9z M497.9,324.7h4.4l-2.2-6.8
		L497.9,324.7z"/>
	<path fill="#F5F5F5" d="M519.8,314.3c1.2,0.4,2.2,1.1,2.9,2.2c0.6,0.9,1,1.8,1.2,2.8c0.2,1,0.3,2,0.3,2.9c0,2.3-0.5,4.2-1.4,5.8
		c-1.3,2.1-3.2,3.2-5.8,3.2h-7.4v-17.3h7.4C518.2,314,519.1,314.1,519.8,314.3z M513.2,316.9v11.3h3.3c1.7,0,2.9-0.8,3.6-2.5
		c0.4-0.9,0.6-2,0.6-3.3c0-1.8-0.3-3.1-0.8-4c-0.6-0.9-1.6-1.4-3.3-1.4H513.2z"/>
</g>
<path fill="#F5F5F5" d="M348,51.6v51.6h0c28.5,0,51.6-23.1,51.6-51.6V0h0C371.1,0,348,23.1,348,51.6z"/>
<path fill="#F5F5F5" d="M344.1,77.5v25.8l0,0c-14.3,0-25.8-11.6-25.8-25.8V51.6l0,0C332.5,51.6,344.1,63.2,344.1,77.5z"/>
</svg>
