<?xml version="1.0" encoding="utf-8"?>
<!-- Generator: Adobe Illustrator 18.1.0, SVG Export Plug-In . SVG Version: 6.00 Build 0)  -->
<svg version="1.1" id="Capa_1" xmlns="http://www.w3.org/2000/svg" xmlns:xlink="http://www.w3.org/1999/xlink" x="0px" y="0px"
	 width="753.3px" height="314.6px" viewBox="0 0 753.3 314.6" enable-background="new 0 0 753.3 314.6" xml:space="preserve">
<g>
	<g>
		<path d="M64.3,137.3H20.5v17.6h40.2v14.4H20.5v21.3h45.8v14.9H3.6v-82.7h60.7V137.3z"/>
		<path d="M108.7,166.2c-0.3-2.3-1.1-4.3-2.3-6.2c-1.8-2.5-4.6-3.7-8.4-3.7c-5.4,0-9.1,2.7-11.1,8c-1.1,2.8-1.6,6.6-1.6,11.3
			c0,4.5,0.5,8.1,1.6,10.8c1.9,5.1,5.5,7.6,10.8,7.6c3.8,0,6.4-1,8-3c1.6-2,2.5-4.6,2.9-7.9h16.3c-0.4,4.9-2.1,9.5-5.3,13.8
			c-5,7-12.5,10.5-22.3,10.5s-17.1-2.9-21.7-8.8c-4.6-5.8-7-13.4-7-22.7c0-10.5,2.6-18.7,7.7-24.5c5.1-5.8,12.2-8.8,21.2-8.8
			c7.7,0,14,1.7,18.9,5.2c4.9,3.4,7.8,9.5,8.7,18.2H108.7z"/>
		<path d="M181.6,197.9c-5.2,6.4-13,9.6-23.5,9.6c-10.5,0-18.4-3.2-23.5-9.6s-7.7-14.1-7.7-23c0-8.8,2.6-16.5,7.7-22.9
			s13-9.7,23.5-9.7c10.5,0,18.4,3.2,23.5,9.7s7.7,14.1,7.7,22.9C189.4,183.9,186.8,191.5,181.6,197.9z M168.8,189.1
			c2.5-3.3,3.8-8.1,3.8-14.2s-1.3-10.8-3.8-14.2c-2.5-3.3-6.1-5-10.8-5c-4.7,0-8.3,1.7-10.8,5c-2.5,3.3-3.8,8-3.8,14.2
			s1.3,10.9,3.8,14.2s6.1,5,10.8,5C162.7,194.1,166.3,192.4,168.8,189.1z"/>
		<path d="M239.1,144.6c3.1,1.3,5.6,3.3,7.6,6c1.7,2.3,2.7,4.6,3.1,7.1c0.4,2.4,0.6,6.4,0.6,11.8v36H234v-37.3c0-3.3-0.6-6-1.7-8
			c-1.4-2.8-4.2-4.3-8.2-4.3c-4.2,0-7.4,1.4-9.6,4.2c-2.2,2.8-3.3,6.9-3.3,12.1v33.2h-16v-82.5h16v29.2c2.3-3.6,5-6,8-7.4
			c3-1.4,6.2-2.1,9.6-2.1C232.6,142.6,236,143.2,239.1,144.6z"/>
		<path d="M284.2,168.2c3-0.4,5.1-0.8,6.4-1.4c2.3-1,3.4-2.5,3.4-4.5c0-2.5-0.9-4.2-2.6-5.2c-1.8-1-4.4-1.4-7.8-1.4
			c-3.8,0-6.5,0.9-8.1,2.8c-1.1,1.4-1.9,3.3-2.3,5.6h-15.4c0.3-5.4,1.8-9.7,4.5-13.2c4.2-5.4,11.5-8.1,21.9-8.1
			c6.7,0,12.7,1.3,17.9,4c5.2,2.7,7.8,7.7,7.8,15v28.1c0,1.9,0,4.3,0.1,7.1c0.1,2.1,0.4,3.5,1,4.3c0.5,0.7,1.3,1.4,2.4,1.9v2.4
			h-17.4c-0.5-1.2-0.8-2.4-1-3.5c-0.2-1.1-0.3-2.3-0.4-3.7c-2.2,2.4-4.8,4.4-7.7,6.1c-3.5,2-7.4,3-11.7,3c-5.6,0-10.2-1.6-13.8-4.7
			s-5.4-7.6-5.4-13.4c0-7.5,2.9-13,8.8-16.3c3.2-1.8,7.9-3.1,14.1-3.9L284.2,168.2z M294,175.7c-1,0.6-2.1,1.2-3.1,1.5
			c-1,0.4-2.5,0.8-4.3,1.1l-3.6,0.7c-3.4,0.6-5.9,1.3-7.4,2.2c-2.5,1.5-3.8,3.7-3.8,6.8c0,2.7,0.8,4.7,2.3,5.9
			c1.5,1.2,3.4,1.8,5.6,1.8c3.5,0,6.7-1,9.7-3c2.9-2,4.5-5.7,4.6-11.1V175.7z"/>
		<path d="M355.2,166.2c-0.3-2.3-1.1-4.3-2.3-6.2c-1.8-2.5-4.6-3.7-8.4-3.7c-5.4,0-9.1,2.7-11.1,8c-1.1,2.8-1.6,6.6-1.6,11.3
			c0,4.5,0.5,8.1,1.6,10.8c1.9,5.1,5.5,7.6,10.8,7.6c3.8,0,6.4-1,8-3c1.6-2,2.5-4.6,2.9-7.9h16.3c-0.4,4.9-2.1,9.5-5.3,13.8
			c-5,7-12.5,10.5-22.3,10.5s-17.1-2.9-21.7-8.8c-4.6-5.8-7-13.4-7-22.7c0-10.5,2.6-18.7,7.7-24.5c5.1-5.8,12.2-8.8,21.2-8.8
			c7.7,0,14,1.7,18.9,5.2c4.9,3.4,7.8,9.5,8.7,18.2H355.2z"/>
		<path d="M377,122.9h15.7v44.6l20.2-23.1h19.9l-21.9,22.8l22.8,38.1h-19.5l-14.8-26.1l-6.6,6.9v19.3H377V122.9z"/>
		<path d="M478.7,122.7l10.9,47.4l2.4,13.2l2.4-12.9l9.3-47.7H522l9.8,47.4l2.5,13.2l2.6-12.7l11-47.9h17.6l-23.3,82.7h-16.6
			l-10-48.4l-2.9-16l-2.9,16l-10,48.4h-16.1l-23.5-82.7H478.7z"/>
		<path d="M615.7,197.9c-5.2,6.4-13,9.6-23.5,9.6c-10.5,0-18.4-3.2-23.5-9.6c-5.2-6.4-7.7-14.1-7.7-23c0-8.8,2.6-16.5,7.7-22.9
			c5.2-6.5,13-9.7,23.5-9.7c10.5,0,18.4,3.2,23.5,9.7c5.2,6.5,7.7,14.1,7.7,22.9C623.4,183.9,620.8,191.5,615.7,197.9z M602.9,189.1
			c2.5-3.3,3.8-8.1,3.8-14.2s-1.3-10.8-3.8-14.2c-2.5-3.3-6.1-5-10.8-5s-8.3,1.7-10.8,5c-2.5,3.3-3.8,8-3.8,14.2s1.3,10.9,3.8,14.2
			c2.5,3.3,6.1,5,10.8,5S600.4,192.4,602.9,189.1z"/>
		<path d="M663.3,142.8c0.2,0,0.7,0,1.4,0.1v16.4c-1-0.1-1.9-0.2-2.7-0.2c-0.8,0-1.4-0.1-1.9-0.1c-6.4,0-10.8,2.1-13,6.3
			c-1.2,2.4-1.9,6-1.9,10.9v29.2h-16.1v-61.2h15.3v10.7c2.5-4.1,4.6-6.9,6.5-8.4c3-2.5,6.9-3.8,11.7-3.8
			C662.8,142.8,663.1,142.8,663.3,142.8z"/>
		<path d="M683.9,205.4h-16v-82.7h16V205.4z"/>
		<path d="M726.5,145.2c2.9,1.6,5.2,3.9,7,6.8v-29.2h16.2v82.6h-15.5v-8.5c-2.3,3.6-4.9,6.3-7.8,7.9c-2.9,1.6-6.5,2.5-10.9,2.5
			c-7.1,0-13.2-2.9-18-8.7c-4.9-5.8-7.3-13.2-7.3-22.3c0-10.4,2.4-18.7,7.2-24.6c4.8-6,11.2-9,19.3-9
			C720.3,142.8,723.6,143.6,726.5,145.2z M730.4,188.8c2.4-3.4,3.5-7.7,3.5-13.1c0-7.5-1.9-12.8-5.7-16.1c-2.3-1.9-5-2.9-8.1-2.9
			c-4.7,0-8.1,1.8-10.3,5.3c-2.2,3.5-3.3,7.9-3.3,13.2c0,5.7,1.1,10.2,3.3,13.6c2.2,3.4,5.6,5.1,10.1,5.1
			C724.6,193.8,728,192.2,730.4,188.8z"/>
	</g>
	<g>
		<path fill="#F5F5F5" d="M0,221.3h12.7l22.9,40.3v-40.3h11.2v57.8H34.8l-23.5-41v41H0V221.3z"/>
		<path fill="#F5F5F5" d="M89.6,273.9c-3.6,4.5-9.1,6.7-16.4,6.7s-12.8-2.2-16.4-6.7c-3.6-4.5-5.4-9.8-5.4-16.1
			c0-6.2,1.8-11.5,5.4-16c3.6-4.5,9.1-6.8,16.4-6.8s12.8,2.3,16.4,6.8c3.6,4.5,5.4,9.9,5.4,16C95,264.1,93.2,269.4,89.6,273.9z
			 M80.7,267.7c1.8-2.3,2.6-5.6,2.6-9.9c0-4.3-0.9-7.6-2.6-9.9s-4.3-3.5-7.5-3.5s-5.8,1.2-7.5,3.5s-2.6,5.6-2.6,9.9
			c0,4.3,0.9,7.6,2.6,9.9c1.8,2.3,4.3,3.5,7.5,3.5S78.9,270,80.7,267.7z"/>
		<path fill="#F5F5F5" d="M123.5,236.4h12l-15.4,42.7h-11.8L93,236.4h12.5l8.9,31.5L123.5,236.4z"/>
		<path fill="#F5F5F5" d="M164.4,237.3c3,1.3,5.4,3.4,7.4,6.3c1.8,2.5,2.9,5.5,3.4,8.8c0.3,2,0.4,4.8,0.4,8.5h-31.1
			c0.2,4.3,1.7,7.3,4.5,9c1.7,1.1,3.8,1.6,6.2,1.6c2.5,0,4.6-0.7,6.2-2c0.9-0.7,1.6-1.7,2.3-2.9H175c-0.3,2.5-1.7,5.1-4.1,7.7
			c-3.8,4.2-9.2,6.2-16.1,6.2c-5.7,0-10.7-1.8-15-5.3s-6.5-9.2-6.5-17.1c0-7.4,2-13.1,5.9-17s9-5.9,15.3-5.9
			C158.1,235.2,161.4,235.9,164.4,237.3z M147.7,246.9c-1.6,1.6-2.6,3.8-3,6.6H164c-0.2-3-1.2-5.2-3-6.8c-1.8-1.5-4-2.3-6.6-2.3
			C151.5,244.5,149.3,245.3,147.7,246.9z"/>
		<path fill="#F5F5F5" d="M232,236.5c1.8,0.7,3.5,2,5,3.8c1.2,1.5,2,3.3,2.4,5.5c0.3,1.4,0.4,3.5,0.4,6.3l-0.1,26.9h-11.4v-27.2
			c0-1.6-0.3-3-0.8-4c-1-2-2.8-3-5.5-3c-3.1,0-5.2,1.3-6.4,3.8c-0.6,1.4-0.9,3-0.9,4.9v25.4h-11.2v-25.4c0-2.5-0.3-4.4-0.8-5.5
			c-0.9-2.1-2.8-3.1-5.5-3.1c-3.2,0-5.3,1-6.4,3.1c-0.6,1.2-0.9,2.9-0.9,5.3v25.7h-11.3v-42.6h10.9v6.2c1.4-2.2,2.7-3.8,3.9-4.7
			c2.2-1.7,5-2.5,8.4-2.5c3.3,0,5.9,0.7,7.9,2.2c1.6,1.3,2.8,3,3.7,5.1c1.5-2.5,3.3-4.3,5.4-5.5c2.3-1.2,4.9-1.8,7.7-1.8
			C228.3,235.4,230.1,235.8,232,236.5z"/>
		<path fill="#F5F5F5" d="M282.5,241.5c3.2,4.1,4.8,9.3,4.8,15.7c0,6.6-1.6,12.1-4.7,16.5s-7.5,6.5-13.2,6.5c-3.5,0-6.4-0.7-8.5-2.1
			c-1.3-0.8-2.7-2.3-4.2-4.4v5.4h-11v-57.7h11.2V242c1.4-2,3-3.5,4.7-4.5c2-1.3,4.6-2,7.7-2C274.9,235.4,279.3,237.5,282.5,241.5z
			 M273.2,267.5c1.6-2.3,2.4-5.4,2.4-9.2c0-3-0.4-5.5-1.2-7.5c-1.5-3.8-4.3-5.6-8.3-5.6c-4.1,0-6.9,1.8-8.4,5.5
			c-0.8,2-1.2,4.5-1.2,7.6c0,3.7,0.8,6.7,2.5,9.1c1.6,2.4,4.1,3.6,7.5,3.6C269.3,271,271.5,269.9,273.2,267.5z"/>
		<path fill="#F5F5F5" d="M319.9,237.3c3,1.3,5.4,3.4,7.4,6.3c1.8,2.5,2.9,5.5,3.4,8.8c0.3,2,0.4,4.8,0.4,8.5h-31.1
			c0.2,4.3,1.7,7.3,4.5,9c1.7,1.1,3.8,1.6,6.2,1.6c2.5,0,4.6-0.7,6.2-2c0.9-0.7,1.6-1.7,2.3-2.9h11.4c-0.3,2.5-1.7,5.1-4.1,7.7
			c-3.8,4.2-9.2,6.2-16.1,6.2c-5.7,0-10.7-1.8-15-5.3s-6.5-9.2-6.5-17.1c0-7.4,2-13.1,5.9-17s9-5.9,15.3-5.9
			C313.6,235.2,316.9,235.9,319.9,237.3z M303.2,246.9c-1.6,1.6-2.6,3.8-3,6.6h19.2c-0.2-3-1.2-5.2-3-6.8c-1.8-1.5-4-2.3-6.6-2.3
			C307,244.5,304.8,245.3,303.2,246.9z"/>
		<path fill="#F5F5F5" d="M357.8,235.4c0.1,0,0.5,0,1,0.1v11.4c-0.7-0.1-1.3-0.1-1.9-0.2s-1,0-1.3,0c-4.5,0-7.5,1.5-9.1,4.4
			c-0.9,1.6-1.3,4.2-1.3,7.6v20.4H334v-42.7h10.7v7.4c1.7-2.8,3.2-4.8,4.5-5.8c2.1-1.8,4.8-2.6,8.2-2.6
			C357.5,235.4,357.7,235.4,357.8,235.4z"/>
		<path fill="#F5F5F5" d="M383.2,239.9v-7.6c3.5-0.2,6-0.4,7.4-0.7c2.2-0.5,4.1-1.5,5.5-3c1-1,1.7-2.4,2.2-4.1
			c0.3-1,0.4-1.8,0.4-2.3h9.3v56.8h-11.4v-39.2H383.2z"/>
		<path fill="#F5F5F5" d="M427.6,263.9c0.4,2.4,1.3,4.3,2.5,5.6c1.2,1.3,3.1,2,5.5,2c2.8,0,4.9-1,6.3-2.9c1.4-1.9,2.2-4.4,2.2-7.3
			c0-2.9-0.7-5.3-2-7.3c-1.4-2-3.5-3-6.3-3c-1.4,0-2.5,0.2-3.5,0.5c-1.7,0.6-3.1,1.8-3.9,3.5l-10-0.5l4-31.4h31.3v9.5h-23.2l-2,12.4
			c1.7-1.1,3.1-1.9,4-2.2c1.6-0.6,3.6-0.9,5.9-0.9c4.7,0,8.8,1.6,12.3,4.7c3.5,3.2,5.2,7.8,5.2,13.8c0,5.3-1.7,9.9-5.1,14.1
			c-3.4,4.1-8.4,6.2-15.1,6.2c-5.4,0-9.8-1.4-13.3-4.3c-3.5-2.9-5.4-7-5.8-12.3H427.6z"/>
		<path fill="#F5F5F5" d="M460.2,251.4h21.9V262h-21.9V251.4z"/>
		<path fill="#F5F5F5" d="M481.5,239.9v-7.6c3.5-0.2,6-0.4,7.4-0.7c2.2-0.5,4.1-1.5,5.5-3c1-1,1.7-2.4,2.2-4.1
			c0.3-1,0.4-1.8,0.4-2.3h9.3v56.8h-11.4v-39.2H481.5z"/>
		<path fill="#F5F5F5" d="M542.7,236.6c0-0.9-0.4-1.9-1.1-3c-1.2-1.8-3-2.7-5.4-2.7c-3.6,0-6.2,2-7.8,6.1c-0.8,2.2-1.4,5.6-1.7,10
			c1.4-1.6,3-2.8,4.8-3.6c1.8-0.8,3.9-1.1,6.3-1.1c5,0,9.2,1.7,12.4,5.1c3.2,3.4,4.8,7.8,4.8,13.1c0,5.3-1.6,10-4.7,14
			c-3.2,4.1-8.1,6.1-14.7,6.1c-7.2,0-12.4-3-15.8-9c-2.6-4.7-4-10.7-4-18.1c0-4.3,0.2-7.9,0.5-10.6c0.7-4.8,1.9-8.9,3.8-12.1
			c1.6-2.7,3.7-5,6.4-6.6c2.6-1.7,5.8-2.5,9.4-2.5c5.3,0,9.5,1.4,12.6,4.1s4.9,6.3,5.3,10.8H542.7z M529.4,268.6
			c1.6,1.9,3.7,2.9,6.3,2.9c2.5,0,4.4-0.9,5.9-2.8s2.1-4.3,2.1-7.3c0-3.3-0.8-5.9-2.4-7.6c-1.6-1.8-3.6-2.6-6-2.6
			c-1.9,0-3.6,0.6-5.1,1.7c-2.2,1.7-3.3,4.4-3.3,8.2C526.9,264.2,527.8,266.7,529.4,268.6z"/>
		<path fill="#F5F5F5" d="M559.1,288.4c2.2-0.6,3.9-1.7,5-3.1s1.7-3.5,1.8-6.2h-6.8v-11.7h12.1v10.1c0,1.8-0.2,3.6-0.7,5.6
			c-0.5,1.9-1.3,3.6-2.6,5c-1.4,1.5-3,2.7-4.9,3.4c-1.9,0.8-3.2,1.2-3.9,1.2V288.4z"/>
		<path fill="#F5F5F5" d="M599.4,267.9c1.6-3.8,5.4-7.8,11.3-12c5.1-3.7,8.5-6.3,10-7.9c2.3-2.5,3.5-5.2,3.5-8.2c0-2.4-0.7-4.4-2-6
			s-3.2-2.4-5.7-2.4c-3.4,0-5.7,1.3-6.9,3.8c-0.7,1.5-1.1,3.8-1.3,7h-10.9c0.2-4.8,1.1-8.7,2.6-11.7c3-5.7,8.3-8.5,15.9-8.5
			c6,0,10.8,1.7,14.4,5s5.3,7.7,5.3,13.2c0,4.2-1.3,7.9-3.8,11.2c-1.7,2.2-4.4,4.6-8.1,7.2l-4.5,3.2c-2.8,2-4.7,3.4-5.7,4.3
			c-1,0.9-1.9,1.9-2.6,3.1h24.8v9.8h-38.9C596.9,275,597.8,271.3,599.4,267.9z"/>
		<path fill="#F5F5F5" d="M673.5,229.5c2.9,5.1,4.4,12.3,4.4,21.7c0,9.4-1.5,16.6-4.4,21.7c-2.9,5.1-8,7.6-15.2,7.6
			c-7.2,0-12.3-2.5-15.2-7.6c-2.9-5.1-4.4-12.3-4.4-21.7c0-9.4,1.5-16.6,4.4-21.7c2.9-5.1,8-7.6,15.2-7.6
			C665.5,221.9,670.6,224.4,673.5,229.5z M651.7,266.2c1.1,3.5,3.3,5.2,6.6,5.2c3.3,0,5.5-1.7,6.5-5.2c1-3.5,1.5-8.5,1.5-15
			c0-6.8-0.5-11.9-1.5-15.2c-1-3.3-3.2-4.9-6.5-4.9c-3.3,0-5.5,1.6-6.6,4.9c-1.1,3.3-1.6,8.4-1.6,15.2
			C650.1,257.8,650.6,262.8,651.7,266.2z"/>
		<path fill="#F5F5F5" d="M681.3,239.9v-7.6c3.5-0.2,6-0.4,7.4-0.7c2.2-0.5,4.1-1.5,5.5-3c1-1,1.7-2.4,2.2-4.1
			c0.3-1,0.4-1.8,0.4-2.3h9.3v56.8h-11.4v-39.2H681.3z"/>
		<path fill="#F5F5F5" d="M753.3,266.9h-6.4v12.2h-10.9v-12.2h-22.5v-9.8l20.9-34.5h12.5v35.5h6.4V266.9z M735.9,258.1v-24.5
			l-14.2,24.5H735.9z"/>
	</g>
	<g>
		<path fill="#F5F5F5" d="M204,308.8c0.1,0.8,0.3,1.4,0.7,1.8c0.6,0.7,1.6,1.1,3.1,1.1c0.9,0,1.6-0.1,2.1-0.3c1-0.4,1.5-1,1.5-2
			c0-0.6-0.3-1-0.8-1.3c-0.5-0.3-1.3-0.6-2.4-0.8l-1.9-0.4c-1.8-0.4-3.1-0.8-3.8-1.3c-1.2-0.8-1.7-2-1.7-3.7c0-1.5,0.6-2.8,1.7-3.9
			s2.8-1.5,5-1.5c1.8,0,3.4,0.5,4.7,1.4c1.3,1,2,2.4,2,4.2h-3.5c-0.1-1-0.5-1.8-1.4-2.2c-0.6-0.3-1.3-0.4-2.2-0.4
			c-1,0-1.7,0.2-2.3,0.6c-0.6,0.4-0.9,0.9-0.9,1.6c0,0.6,0.3,1.1,0.8,1.4c0.4,0.2,1.1,0.4,2.3,0.7l3,0.7c1.3,0.3,2.3,0.7,3,1.3
			c1,0.8,1.5,2,1.5,3.5c0,1.6-0.6,2.9-1.8,3.9s-2.9,1.6-5.2,1.6c-2.3,0-4.1-0.5-5.4-1.5s-2-2.4-2-4.2H204z"/>
		<path fill="#F5F5F5" d="M225.7,296.8h4.1l-5.8,10.8v6.5h-3.6v-6.5l-6-10.8h4.3l3.6,7.5L225.7,296.8z"/>
		<path fill="#F5F5F5" d="M241.2,297.2c1.2,0.4,2.2,1.1,2.9,2.2c0.6,0.9,1,1.8,1.2,2.8c0.2,1,0.3,2,0.3,2.9c0,2.3-0.5,4.2-1.4,5.8
			c-1.3,2.1-3.2,3.2-5.8,3.2h-7.4v-17.3h7.4C239.6,296.8,240.5,297,241.2,297.2z M234.6,299.8v11.3h3.3c1.7,0,2.9-0.8,3.6-2.5
			c0.4-0.9,0.6-2,0.6-3.3c0-1.8-0.3-3.1-0.8-4c-0.6-0.9-1.6-1.4-3.3-1.4H234.6z"/>
		<path fill="#F5F5F5" d="M257.2,296.3h2.8l-6.7,17.8h-2.8L257.2,296.3z"/>
		<path fill="#F5F5F5" d="M267.2,298.6c1.4-1.4,3.2-2.1,5.3-2.1c2.9,0,5,1,6.3,2.9c0.7,1.1,1.1,2.1,1.2,3.2h-3.6
			c-0.2-0.8-0.5-1.5-0.9-1.9c-0.6-0.8-1.6-1.1-2.9-1.1c-1.3,0-2.3,0.5-3,1.6s-1.1,2.6-1.1,4.5s0.4,3.4,1.2,4.4s1.8,1.4,3,1.4
			c1.2,0,2.2-0.4,2.8-1.2c0.4-0.4,0.7-1.1,0.9-2h3.6c-0.3,1.9-1.1,3.4-2.4,4.6s-2.9,1.8-4.9,1.8c-2.5,0-4.4-0.8-5.8-2.4
			c-1.4-1.6-2.1-3.8-2.1-6.6C264.8,302.6,265.6,300.3,267.2,298.6z"/>
		<path fill="#F5F5F5" d="M294.8,298.7c0.5,0.7,0.8,1.6,0.8,2.6c0,1.1-0.3,1.9-0.8,2.5c-0.3,0.4-0.7,0.7-1.3,1
			c0.9,0.3,1.5,0.8,2,1.5s0.7,1.5,0.7,2.5c0,1-0.3,1.9-0.8,2.8c-0.3,0.5-0.7,1-1.2,1.4c-0.6,0.4-1.2,0.7-2,0.9
			c-0.7,0.2-1.6,0.2-2.4,0.2H282v-17.3h8.3C292.4,296.8,293.9,297.5,294.8,298.7z M285.4,299.8v3.8h4.2c0.8,0,1.4-0.1,1.8-0.4
			c0.5-0.3,0.7-0.8,0.7-1.5c0-0.8-0.3-1.3-0.9-1.6c-0.5-0.2-1.2-0.3-2-0.3H285.4z M285.4,306.5v4.6h4.2c0.7,0,1.3-0.1,1.8-0.3
			c0.8-0.4,1.1-1.1,1.1-2.2c0-0.9-0.4-1.5-1.1-1.9c-0.4-0.2-1-0.3-1.7-0.3H285.4z"/>
		<path fill="#F5F5F5" d="M309.9,302.2c-0.3-1.2-0.9-2-2-2.5c-0.6-0.3-1.3-0.4-2-0.4c-1.4,0-2.5,0.5-3.4,1.6s-1.3,2.6-1.3,4.7
			c0,2.1,0.5,3.6,1.5,4.5s2.1,1.3,3.3,1.3c1.2,0,2.2-0.3,3-1s1.2-1.6,1.4-2.7h-4v-2.9h7.2v9.3h-2.4l-0.4-2.2
			c-0.7,0.8-1.3,1.4-1.9,1.7c-1,0.6-2.1,0.9-3.5,0.9c-2.3,0-4.2-0.8-5.6-2.4c-1.5-1.6-2.3-3.8-2.3-6.5c0-2.8,0.8-5,2.3-6.7
			c1.5-1.7,3.6-2.5,6.1-2.5c2.2,0,4,0.6,5.3,1.7s2.1,2.5,2.3,4.2H309.9z"/>
		<path fill="#F5F5F5" d="M325.7,296.3h2.8l-6.7,17.8H319L325.7,296.3z"/>
		<path fill="#F5F5F5" d="M344.2,297.2c1.2,0.4,2.2,1.1,2.9,2.2c0.6,0.9,1,1.8,1.2,2.8c0.2,1,0.3,2,0.3,2.9c0,2.3-0.5,4.2-1.4,5.8
			c-1.3,2.1-3.2,3.2-5.8,3.2h-7.4v-17.3h7.4C342.6,296.8,343.5,297,344.2,297.2z M337.6,299.8v11.3h3.3c1.7,0,2.9-0.8,3.6-2.5
			c0.4-0.9,0.6-2,0.6-3.3c0-1.8-0.3-3.1-0.8-4c-0.6-0.9-1.6-1.4-3.3-1.4H337.6z"/>
		<path fill="#F5F5F5" d="M352.3,298.6c1.4-1.4,3.2-2.1,5.3-2.1c2.9,0,5,1,6.3,2.9c0.7,1.1,1.1,2.1,1.2,3.2h-3.6
			c-0.2-0.8-0.5-1.5-0.9-1.9c-0.6-0.8-1.6-1.1-2.9-1.1c-1.3,0-2.3,0.5-3,1.6s-1.1,2.6-1.1,4.5s0.4,3.4,1.2,4.4s1.8,1.4,3,1.4
			c1.2,0,2.2-0.4,2.8-1.2c0.4-0.4,0.7-1.1,0.9-2h3.6c-0.3,1.9-1.1,3.4-2.4,4.6s-2.9,1.8-4.9,1.8c-2.5,0-4.4-0.8-5.8-2.4
			c-1.4-1.6-2.1-3.8-2.1-6.6C349.9,302.6,350.7,300.3,352.3,298.6z"/>
		<path fill="#F5F5F5" d="M376.8,296.3h2.8l-6.7,17.8h-2.8L376.8,296.3z"/>
		<path fill="#F5F5F5" d="M385.1,296.8h3.8l6.9,12v-12h3.4v17.3h-3.6l-7-12.3v12.3h-3.4V296.8z"/>
		<path fill="#F5F5F5" d="M411.6,296.8h4.1l-5.8,10.8v6.5h-3.6v-6.5l-6-10.8h4.3l3.6,7.5L411.6,296.8z"/>
		<path fill="#F5F5F5" d="M417.6,298.6c1.4-1.4,3.2-2.1,5.3-2.1c2.9,0,5,1,6.3,2.9c0.7,1.1,1.1,2.1,1.2,3.2h-3.6
			c-0.2-0.8-0.5-1.5-0.9-1.9c-0.6-0.8-1.6-1.1-2.9-1.1c-1.3,0-2.3,0.5-3,1.6s-1.1,2.6-1.1,4.5s0.4,3.4,1.2,4.4s1.8,1.4,3,1.4
			c1.2,0,2.2-0.4,2.8-1.2c0.4-0.4,0.7-1.1,0.9-2h3.6c-0.3,1.9-1.1,3.4-2.4,4.6s-2.9,1.8-4.9,1.8c-2.5,0-4.4-0.8-5.8-2.4
			c-1.4-1.6-2.1-3.8-2.1-6.6C415.1,302.6,415.9,300.3,417.6,298.6z"/>
		<path fill="#F5F5F5" d="M442,296.3h2.8l-6.7,17.8h-2.8L442,296.3z"/>
		<path fill="#F5F5F5" d="M461.8,296.8h5.2v17.3h-3.4v-11.7c0-0.3,0-0.8,0-1.4s0-1.1,0-1.4l-3.3,14.5h-3.5l-3.2-14.5
			c0,0.3,0,0.8,0,1.4s0,1.1,0,1.4v11.7h-3.4v-17.3h5.3l3.1,13.6L461.8,296.8z"/>
		<path fill="#F5F5F5" d="M474.5,296.8h4.1l6.1,17.3h-3.9l-1.1-3.6h-6.4l-1.2,3.6h-3.8L474.5,296.8z M474.2,307.6h4.4l-2.2-6.8
			L474.2,307.6z"/>
		<path fill="#F5F5F5" d="M496.1,297.2c1.2,0.4,2.2,1.1,2.9,2.2c0.6,0.9,1,1.8,1.2,2.8c0.2,1,0.3,2,0.3,2.9c0,2.3-0.5,4.2-1.4,5.8
			c-1.3,2.1-3.2,3.2-5.8,3.2H486v-17.3h7.4C494.5,296.8,495.4,297,496.1,297.2z M489.5,299.8v11.3h3.3c1.7,0,2.9-0.8,3.6-2.5
			c0.4-0.9,0.6-2,0.6-3.3c0-1.8-0.3-3.1-0.8-4c-0.6-0.9-1.6-1.4-3.3-1.4H489.5z"/>
		<path fill="#F5F5F5" d="M512.1,296.3h2.8l-6.7,17.8h-2.8L512.1,296.3z"/>
		<path fill="#F5F5F5" d="M523.1,308.8c0.1,0.8,0.3,1.4,0.7,1.8c0.6,0.7,1.6,1.1,3.1,1.1c0.9,0,1.6-0.1,2.1-0.3c1-0.4,1.5-1,1.5-2
			c0-0.6-0.3-1-0.8-1.3c-0.5-0.3-1.3-0.6-2.4-0.8l-1.9-0.4c-1.8-0.4-3.1-0.8-3.8-1.3c-1.2-0.8-1.7-2-1.7-3.7c0-1.5,0.6-2.8,1.7-3.9
			s2.8-1.5,5-1.5c1.8,0,3.4,0.5,4.7,1.4c1.3,1,2,2.4,2,4.2h-3.5c-0.1-1-0.5-1.8-1.4-2.2c-0.6-0.3-1.3-0.4-2.2-0.4
			c-1,0-1.7,0.2-2.3,0.6c-0.6,0.4-0.9,0.9-0.9,1.6c0,0.6,0.3,1.1,0.8,1.4c0.4,0.2,1.1,0.4,2.3,0.7l3,0.7c1.3,0.3,2.3,0.7,3,1.3
			c1,0.8,1.5,2,1.5,3.5c0,1.6-0.6,2.9-1.8,3.9s-2.9,1.6-5.2,1.6c-2.3,0-4.1-0.5-5.4-1.5s-2-2.4-2-4.2H523.1z"/>
		<path fill="#F5F5F5" d="M535.8,296.8h12.3v3h-8.7v4h7.7v3h-7.7v7.2h-3.6V296.8z"/>
	</g>
	<path fill="#F5F5F5" d="M348,51.6v51.6h0c28.5,0,51.6-23.1,51.6-51.6V0h0C371.1,0,348,23.1,348,51.6z"/>
	<path fill="#F5F5F5" d="M344.1,77.5v25.8l0,0c-14.3,0-25.8-11.6-25.8-25.8V51.6l0,0C332.5,51.6,344.1,63.2,344.1,77.5z"/>
</g>
</svg>
